<?xml version="1.0" standalone="no"?> <!DOCTYPE svg PUBLIC "-//W3C//DTD SVG 1.0//EN" "http://www.w3.org/TR/2001/REC-SVG-20010904/DTD/svg10.dtd" > <svg xmlns="http://www.w3.org/2000/svg" width="100%" height="100%">
<defs >
<font id="centurygothicstd-bold" horiz-adv-x="993" ><font-face
    font-family="Century Gothic Std"
    units-per-em="2048"
    panose-1="2 11 8 2 2 2 2 2 2 4"
    ascent="1507"
    descent="-540"
    alphabetic="0" />
<missing-glyph horiz-adv-x="1024" d="M25 0V1362H997V0H25ZM180 1266L512 768L842 1266H180ZM123 1178V186Q123 185 205 309T370 558L453 682L123 1178ZM901 1178L569 682L901 184V1178ZM842 98L512 594L180 98H842Z" />
<glyph unicode=" " glyph-name="space" horiz-adv-x="573" />
<glyph unicode="!" glyph-name="exclam" horiz-adv-x="573" d="M150 434V1507H422V434H150ZM287 315Q359 315 408 265T457 143Q457 72 408 22T287 -29Q215 -29 165 21T115 143T165 264T287 315Z" />
<glyph unicode="&quot;" glyph-name="quotedbl" horiz-adv-x="737" d="M709 1507L653 1004H496L442 1507H709ZM297 1507L242 1004H86L31 1507H297Z" />
<glyph unicode="#" glyph-name="numbersign" horiz-adv-x="1228" d="M911 678H1110V479H881L809 0H608L678 479H485L416 0H217L287 479H61V678H317L348 866H125V1065H375L440 1507H635L573 1065H764L829 1507H1030L965 1065H1167V866H936L911 678ZM707 678L737
866H543L516 678H707Z" />
<glyph unicode="$" glyph-name="dollar" horiz-adv-x="1146" d="M715 1608V1495Q825 1468 892 1424T1038 1300L846 1112Q712 1249 584 1249Q510 1249 462 1209T414 1110Q414 1050 460 1013Q502 979 665 909Q680 902 711 889Q777 860 815 844Q939 790 1018 677T1098
414Q1098 252 995 121Q938 49 876 19T715 -33V-301H526V-39Q406 -26 295 31T70 213L260 408Q445 213 612 213Q698 213 760 271T823 416Q823 461 805 503T760 563Q614 661 406 752Q301 798 220 903T139 1135Q139 1289 251 1394T526 1507V1608H715Z" />
<glyph unicode="%" glyph-name="percent" horiz-adv-x="1761" d="M895 1442Q1162 1442 1354 1536H1554L389 -100H188L1184 1305Q1010 1276 868 1276Q794 1276 723 1282Q745 1209 745 1155Q745 1010 644 908T395 805Q249 805 146 906T43 1153Q43 1253 93 1335T222
1462T387 1507Q432 1507 600 1475T895 1442ZM463 1325T393 1325T274 1276T225 1157Q225 1087 274 1037T393 987Q462 987 512 1037T563 1157Q563 1227 513 1276ZM1223 664T1368 664T1616 561T1720 311Q1720 166 1617 64T1368 -39Q1222 -39 1120 63T1018 311Q1018
457 1120 560ZM1368 481Q1298 481 1249 432T1200 311T1249 192T1368 143Q1439 143 1488 192T1538 311Q1538 382 1489 431T1368 481Z" />
<glyph unicode="&amp;" glyph-name="ampersand" horiz-adv-x="1392" d="M1004 0L907 100Q678 -35 477 -35Q310 -35 204 61T98 315Q98 440 161 544T358 752Q219 941 219 1087Q219 1147 244 1204T315 1307T429 1381T578 1409Q659 1409 728 1381T841 1307T911 1205T936
1092Q936 1023 904 956T827 839T698 705Q716 683 752 641T810 571T866 508T928 442Q964 468 1092 578L1257 387L1108 250L1343 0H1004ZM725 295Q627 393 508 545Q358 420 358 332Q358 289 398 252T502 215Q541 215 582 227T651 254T725 295ZM559 901Q670 999 670
1069Q670 1107 645 1133T580 1159Q541 1159 514 1130T487 1067Q487 992 559 901Z" />
<glyph unicode="&apos;" glyph-name="quotesingle" horiz-adv-x="450" d="M358 1507L303 1004H147L92 1507H358Z" />
<glyph unicode="(" glyph-name="parenleft" horiz-adv-x="778" d="M725 -426H379Q223 -179 158 44T92 573Q92 852 156 1075T379 1536H725Q541 1328 458 1092T375 563Q375 245 458 24T725 -426Z" />
<glyph unicode=")" glyph-name="parenright" horiz-adv-x="778" d="M53 1536H399Q553 1293 618 1070T684 537Q684 257 621 34T399 -426H53Q239 -216 324 20T410 547Q410 711 388 846T319 1100T209 1320T53 1536Z" />
<glyph unicode="*" glyph-name="asterisk" horiz-adv-x="901" d="M408 1206L330 1507H584L506 1206L731 1419L848 1200L543 1122L848 1034L717 819L498 1034L575 735H330L408 1034L184 819L51 1034L356 1122L51 1206L184 1430L408 1206Z" />
<glyph unicode="+" glyph-name="plus" horiz-adv-x="1228" d="M115 860H489V1235H741V860H1114V610H741V236H489V610H115V860Z" />
<glyph unicode="," glyph-name="comma" horiz-adv-x="573" d="M80 -178L268 276L463 178L217 -244L80 -178Z" />
<glyph unicode="-" glyph-name="hyphen" horiz-adv-x="860" d="M176 418V668H684V418H176Z" />
<glyph unicode="." glyph-name="period" horiz-adv-x="573" d="M287 285Q351 285 396 240T442 129T397 18T287 -29T176 17T129 129T175 239T287 285Z" />
<glyph unicode="/" glyph-name="slash" horiz-adv-x="942" d="M236 -262H43L705 1513H897L236 -262Z" />
<glyph unicode="0" glyph-name="zero" horiz-adv-x="1146" d="M569 1507Q831 1507 959 1315T1087 735T961 156T578 -35Q454 -35 363 6T201 135Q121 239 89 378T57 721Q57 940 92 1091T209 1341Q343 1507 569 1507ZM575 1239Q444 1239 392 1113T340 715Q340 223
578 223Q813 223 813 731T575 1239Z" />
<glyph unicode="1" glyph-name="one" horiz-adv-x="1146" d="M174 1204L336 1470H758V0H477V1204H174Z" />
<glyph unicode="2" glyph-name="two" horiz-adv-x="1146" d="M43 135L498 598Q637 739 705 845T774 1051Q774 1135 717 1192T571 1249Q479 1249 420 1180T356 997H84Q94 1237 232 1372T588 1507Q726 1507 833 1444T994 1281T1049 1067Q1049 915 962 764T702 432L539
260H1061V0H43V135Z" />
<glyph unicode="3" glyph-name="three" horiz-adv-x="1146" d="M717 1100Q717 1161 675 1200T565 1239Q503 1239 456 1203T389 1108H121Q144 1295 269 1401T575 1507Q757 1507 878 1393T999 1120Q999 913 793 811Q928 770 1001 671T1075 436Q1075 235 929 99T559
-37Q345 -37 210 92T61 444H338Q374 221 573 221Q672 221 736 284T801 436Q801 540 712 608T463 678V918Q717 939 717 1100Z" />
<glyph unicode="4" glyph-name="four" horiz-adv-x="1146" d="M41 561L678 1507H956V561H1087V301H956V0H684V301H41V561ZM346 561H684V1055L346 561Z" />
<glyph unicode="5" glyph-name="five" horiz-adv-x="1146" d="M164 655L342 1470H1030V1212H551L492 946Q537 961 586 961Q789 961 920 823T1051 473Q1051 332 984 215T802 32T547 -35Q360 -35 225 69T47 362H342Q410 223 553 223Q646 223 711 289T776 463Q776
565 716 628T569 692Q476 692 391 604L164 655Z" />
<glyph unicode="6" glyph-name="six" horiz-adv-x="1146" d="M215 768L594 1507L831 1389L575 889Q769 884 896 752T1024 422Q1024 291 960 185T792 22T565 -35Q439 -35 333 25T163 192T100 432Q100 503 128 578T215 768ZM557 625Q477 625 426 567T375 426Q375
338 430 281T559 223Q636 223 693 281T750 426Q750 507 697 566T557 625Z" />
<glyph unicode="7" glyph-name="seven" horiz-adv-x="1146" d="M123 1204V1470H1087V1323L424 -37L186 78L739 1204H123Z" />
<glyph unicode="8" glyph-name="eight" horiz-adv-x="1146" d="M133 1100Q133 1278 254 1392T575 1507Q772 1507 894 1388T1016 1096Q1016 1009 982 942T874 797Q974 733 1028 633T1083 416Q1083 321 1051 239T956 94T797 -3T578 -39Q500 -39 453 -33T346 -6Q215
40 139 153T63 416Q63 534 112 626T266 797Q133 930 133 1100ZM578 651Q480 651 409 590T338 440Q338 353 402 291T573 229Q679 229 744 284T809 434T741 589T578 651ZM565 1239Q495 1239 452 1193T408 1077Q408 1006 454 958T571 909Q644 909 688 956T733 1077Q733
1149 687 1194T565 1239Z" />
<glyph unicode="9" glyph-name="nine" horiz-adv-x="1146" d="M932 702L553 -37L315 82L571 582Q377 587 250 719T123 1049Q123 1180 187 1285T355 1448T582 1505Q709 1505 815 1445T984 1278T1047 1038Q1047 967 1019 892T932 702ZM588 846Q668 846 720 903T772
1044Q772 1131 716 1189T586 1247Q509 1247 453 1189T397 1044Q397 962 449 904T588 846Z" />
<glyph unicode=":" glyph-name="colon" horiz-adv-x="573" d="M287 285Q351 285 396 240T442 129T397 18T287 -29T176 17T129 129T175 239T287 285ZM287 1116Q351 1116 396 1070T442 958Q442 894 397 849T287 803T176 848T129 958T175 1069T287 1116Z" />
<glyph unicode=";" glyph-name="semicolon" horiz-adv-x="573" d="M80 -178L270 279L461 178L217 -244L80 -178ZM222 1116T287 1116T398 1070T444 958Q444 893 398 848T287 803T177 848T131 958Q131 1023 176 1069Z" />
<glyph unicode="&lt;" glyph-name="less" horiz-adv-x="1228" d="M401 735L1114 367V117L115 625V846L1114 1354V1106L401 735Z" />
<glyph unicode="=" glyph-name="equal" horiz-adv-x="1228" d="M115 825V1075H1114V825H115ZM115 397V647H1114V397H115Z" />
<glyph unicode="&gt;" glyph-name="greater" horiz-adv-x="1228" d="M827 735L115 1106V1354L1114 846V625L115 117V367L827 735Z" />
<glyph unicode="?" glyph-name="question" horiz-adv-x="1146" d="M412 430V459Q412 549 427 620T472 746T536 840T618 924Q629 934 656 957T693 989T722 1019T748 1052T761 1086T768 1128Q768 1201 713 1243T575 1286Q480 1286 421 1234T360 1092H98Q97 1290
232 1413T582 1536Q690 1536 778 1502T924 1411T1011 1280T1042 1126Q1042 1048 1006 968T907 831Q890 816 856 786T810 744T774 709T742 669T719 627T700 574T690 511T682 430H412ZM551 315Q624 315 675 265T727 143T675 21T551 -29Q481 -29 431 22T381 145T430
265T551 315Z" />
<glyph unicode="@" glyph-name="at" horiz-adv-x="1515" d="M1217 1135L1116 553Q1106 495 1106 483Q1106 470 1118 462T1145 453Q1169 453 1205 477T1279 547T1343 670T1370 840Q1370 1091 1211 1241T795 1391Q608 1391 462 1308T236 1082T156 760Q156 576 240
431T474 204T813 123Q931 123 1028 166T1229 301H1419Q1353 219 1293 163T1157 61T991 -7T791 -29Q579 -29 400 73T114 357T8 756Q8 918 69 1064T233 1314T480 1480T780 1542Q934 1542 1071 1490T1302 1350T1452 1145T1507 899Q1507 701 1409 556T1128 338Q1050
305 993 305Q875 305 872 412Q786 315 657 315Q517 315 423 417T328 684Q328 816 382 925T534 1097T752 1161Q908 1161 999 1030L1020 1135H1217ZM739 526Q824 526 882 595T940 758Q940 834 895 885T774 936Q693 936 633 867T573 702Q573 627 618 577T739 526Z"
/>
<glyph unicode="A" glyph-name="A" horiz-adv-x="1515" d="M49 0L616 1470H899L1466 0H1176L1061 303H461L340 0H49ZM954 578L760 1081L565 578H954Z" />
<glyph unicode="B" glyph-name="B" horiz-adv-x="1187" d="M606 0H168V1470H436Q688 1470 807 1399Q890 1350 936 1269T983 1092Q983 928 829 809Q959 747 1023 655T1087 430Q1087 247 961 127Q889 57 806 29T606 0ZM520 1204H449V895H510Q608 895 658 936T709
1055Q709 1126 661 1165T520 1204ZM518 645H449V266H543Q679 266 746 307T813 440Q813 538 739 591T518 645Z" />
<glyph unicode="C" glyph-name="C" horiz-adv-x="1597" d="M1323 444L1513 246Q1361 96 1218 30T874 -37Q647 -37 470 62T194 337T96 737Q96 907 159 1052T329 1297T578 1451T879 1507Q1062 1507 1230 1430T1520 1212L1323 1024Q1120 1239 872 1239Q735 1239 621
1175T439 995T371 737Q371 512 514 372T879 231Q1010 231 1111 282T1323 444Z" />
<glyph unicode="D" glyph-name="D" horiz-adv-x="1433" d="M170 0V1470H524Q736 1470 874 1432T1124 1284Q1225 1186 1281 1038T1337 717Q1337 530 1271 378T1085 133Q1025 86 962 58T821 17T686 3T528 0H170ZM565 1196H451V274H598Q723 274 804 298T946 387Q1055
506 1055 723Q1055 954 930 1075T565 1196Z" />
<glyph unicode="E" glyph-name="E" horiz-adv-x="1064" d="M170 0V1470H973V1196H451V934H973V659H451V274H973V0H170Z" />
<glyph unicode="F" glyph-name="F" horiz-adv-x="983" d="M174 0V1470H903V1196H446V934H903V659H446V0H174Z" />
<glyph unicode="G" glyph-name="G" horiz-adv-x="1720" d="M889 748H1630Q1630 581 1594 456T1454 209Q1245 -37 899 -37Q720 -37 569 26T317 197T159 445T102 743Q102 897 160 1036T321 1279T572 1444T891 1505Q1100 1505 1250 1436T1526 1231L1329 1036Q1137
1237 893 1237Q749 1237 632 1170T450 989T385 739Q385 526 537 379T911 231Q1057 231 1156 292T1315 481H889V748Z" />
<glyph unicode="H" glyph-name="H" horiz-adv-x="1392" d="M170 0V1470H451V918H946V1470H1227V0H946V643H451V0H170Z" />
<glyph unicode="I" glyph-name="I" horiz-adv-x="573" d="M147 0V1470H428V0H147Z" />
<glyph unicode="J" glyph-name="J" horiz-adv-x="983" d="M535 397V1470H815V444Q815 322 799 241T737 96Q640 -37 451 -37Q208 -37 37 176L238 365Q295 302 342 270T444 238Q535 238 535 397Z" />
<glyph unicode="K" glyph-name="K" horiz-adv-x="1269" d="M172 0V1470H453V965L852 1470H1190L674 815L1239 0H907L453 653V0H172Z" />
<glyph unicode="L" glyph-name="L" horiz-adv-x="901" d="M168 0V1470H449V266H856V0H168Z" />
<glyph unicode="M" glyph-name="M" horiz-adv-x="1843" d="M55 0L309 1470H584L924 444L1268 1470H1538L1786 0H1516L1358 930L1044 0H799L489 930L328 0H55Z" />
<glyph unicode="N" glyph-name="N" horiz-adv-x="1515" d="M168 0V1470H436L1067 504V1470H1348V0H1077L449 965V0H168Z" />
<glyph unicode="O" glyph-name="O" horiz-adv-x="1720" d="M862 1507Q1013 1507 1152 1448T1396 1288T1563 1041T1626 731Q1626 572 1566 430T1405 186T1163 25T866 -35Q706 -35 563 26T317 190T156 436T96 737Q96 951 200 1128T479 1406T862 1507ZM860 1239Q762
1239 674 1202T520 1099T417 938T379 731Q379 622 418 528T524 369T678 269T864 233Q995 233 1105 299T1279 480T1343 733Q1343 868 1282 983T1109 1169T860 1239Z" />
<glyph unicode="P" glyph-name="P" horiz-adv-x="1146" d="M166 0V1470H508Q657 1470 757 1444T924 1352Q978 1298 1010 1217T1042 1044Q1042 811 856 696Q811 669 765 653T658 631T562 624T446 623V0H166ZM446 1196V895H578Q768 895 768 1044Q768 1118 717 1157T565
1196H446Z" />
<glyph unicode="Q" glyph-name="Q" horiz-adv-x="1720" d="M1354 -115L1225 51Q1069 -35 864 -35Q704 -35 562 25T317 189T156 435T96 737Q96 951 200 1128T480 1406T862 1507Q1014 1507 1153 1448T1397 1288T1564 1041T1626 731Q1626 433 1432 215L1688 -115H1354ZM1124
612L1255 442Q1343 572 1343 733Q1343 869 1282 984T1109 1169T862 1239Q659 1239 519 1097T379 731Q379 621 418 527T524 369T679 269T864 233Q959 233 1053 272L788 612H1124Z" />
<glyph unicode="R" glyph-name="R" horiz-adv-x="1187" d="M186 0V1470H528Q680 1470 777 1445T944 1352Q1000 1297 1031 1217T1063 1044Q1063 756 780 653L1128 0H823L494 623H467V0H186ZM467 1196V895H596Q788 895 788 1047Q788 1120 738 1158T588 1196H467Z" />
<glyph unicode="S" glyph-name="S" horiz-adv-x="1064" d="M41 283L276 424Q379 231 520 231Q590 231 640 271T690 369Q690 409 665 452T596 532Q372 720 308 781Q165 919 128 1030Q111 1082 111 1137Q111 1293 229 1400T514 1507Q643 1507 742 1447T940 1272L731
1087Q625 1239 510 1239Q455 1239 420 1210T385 1137Q385 1110 399 1085T428 1044T471 1006Q523 960 601 896T722 795T819 705T899 608T946 505T965 381Q965 196 839 80T514 -37Q354 -37 239 42T41 283Z" />
<glyph unicode="T" glyph-name="T" horiz-adv-x="860" d="M23 1196V1470H836V1196H565V0H285V1196H23Z" />
<glyph unicode="U" glyph-name="U" horiz-adv-x="1310" d="M158 551V1470H438V475Q438 356 493 295T651 233Q711 233 761 256T838 322Q872 375 872 514V1470H1153V535Q1153 391 1132 300T1034 121Q899 -35 657 -35Q426 -35 293 104Q210 190 184 290T158 551Z" />
<glyph unicode="V" glyph-name="V" horiz-adv-x="1433" d="M578 0L55 1470H344L713 426L1090 1470H1376L846 0H578Z" />
<glyph unicode="W" glyph-name="W" horiz-adv-x="1843" d="M389 0L55 1470H332L543 532L807 1470H1040L1307 532L1516 1470H1792L1460 0H1192L920 950L655 0H389Z" />
<glyph unicode="X" glyph-name="X" horiz-adv-x="1392" d="M539 760L72 1470H387L696 999L1006 1470H1321L854 760L1350 0H1034L696 518L358 0H41L539 760Z" />
<glyph unicode="Y" glyph-name="Y" horiz-adv-x="1269" d="M498 637L63 1470H365L639 944L909 1470H1208L778 637V0H498V637Z" />
<glyph unicode="Z" glyph-name="Z" horiz-adv-x="1024" d="M90 1196V1470H979L455 266H946V0H47L569 1196H90Z" />
<glyph unicode="[" glyph-name="bracketleft" horiz-adv-x="655" d="M170 -395V1507H606V1257H442V-145H606V-395H170Z" />
<glyph unicode="\" glyph-name="backslash" horiz-adv-x="1310" d="M420 1513L1081 -262H889L227 1513H420Z" />
<glyph unicode="]" glyph-name="bracketright" horiz-adv-x="655" d="M485 1507V-395H49V-145H213V1257H49V1507H485Z" />
<glyph unicode="^" glyph-name="asciicircum" horiz-adv-x="1228" d="M109 367L496 1470H729L1118 367H877L614 1114L352 367H109Z" />
<glyph unicode="_" glyph-name="underscore" horiz-adv-x="1024" d="M-12 -256V-154H1036V-256H-12Z" />
<glyph unicode="`" glyph-name="grave" horiz-adv-x="860" d="M59 1679H383L621 1288H426L59 1679Z" />
<glyph unicode="a" glyph-name="a" horiz-adv-x="1351" d="M942 0V115Q868 42 788 7T606 -29Q503 -29 409 14T244 131T131 313T88 543Q88 709 157 841T342 1044T600 1116Q795 1116 942 969V1087H1214V0H942ZM655 866Q523 866 443 774T362 545Q362 405 445 313T655
221Q784 221 869 311T954 547Q954 688 870 777T655 866Z" />
<glyph unicode="b" glyph-name="b" horiz-adv-x="1351" d="M410 115V0H137V1507H410V969Q557 1116 752 1116Q856 1116 950 1074T1114 958T1225 776T1266 543Q1266 381 1194 249T1002 44T745 -29Q645 -29 566 6T410 115ZM696 866Q565 866 481 778T397 547Q397 402
482 312T696 221T907 313T991 545Q991 682 910 774T696 866Z" />
<glyph unicode="c" glyph-name="c" horiz-adv-x="1310" d="M975 346L1190 199Q1014 -29 696 -29Q560 -29 445 15T252 136T130 317T86 541Q86 662 131 768T257 950T452 1071T700 1116Q860 1116 990 1052T1202 868L975 743Q914 807 851 836T702 866Q548 866 454
773T360 537Q360 397 450 309T690 221Q874 221 975 346Z" />
<glyph unicode="d" glyph-name="d" horiz-adv-x="1351" d="M942 0V115Q868 42 788 7T606 -29Q503 -29 409 14T244 131T131 313T88 543Q88 709 157 841T342 1044T600 1116Q795 1116 942 969V1507H1214V0H942ZM655 866Q523 866 443 774T362 545Q362 405 445 313T655
221Q784 221 869 311T954 547Q954 688 870 777T655 866Z" />
<glyph unicode="e" glyph-name="e" horiz-adv-x="1310" d="M928 319L1157 211Q1069 86 949 29T657 -29Q488 -29 357 48T157 255T88 545Q88 695 155 824T353 1034T653 1116Q910 1116 1070 951T1231 526Q1231 514 1230 496T1229 465H352Q372 346 455 280T657 213Q744
213 807 238T928 319ZM365 680H956Q929 775 848 830T657 885Q554 885 479 833T365 680Z" />
<glyph unicode="f" glyph-name="f" horiz-adv-x="573" d="M14 856V1087H113Q113 1124 113 1159T114 1227T117 1292T124 1350T138 1403T161 1448T194 1485T239 1512T300 1530T377 1536Q459 1536 569 1497V1288Q507 1307 471 1307Q453 1307 440 1305T418 1298T402
1287T392 1269T387 1247T385 1217T384 1181T385 1138T385 1087H557V856H385V0H113V856H14Z" />
<glyph unicode="g" glyph-name="g" horiz-adv-x="1351" d="M1214 1087V156Q1214 -8 1177 -117T1049 -303Q903 -424 653 -424Q202 -424 90 -80H391Q471 -174 643 -174Q796 -174 874 -102Q898 -80 912 -55T933 3T940 62T942 135Q872 67 794 34T612 0Q390 0 240 158T90
559Q90 682 130 787T240 964T402 1075T598 1116Q786 1116 942 969V1087H1214ZM659 866Q527 866 446 777T365 557Q365 423 450 337T664 250Q791 250 873 334T956 555Q956 689 874 777T659 866Z" />
<glyph unicode="h" glyph-name="h" horiz-adv-x="1228" d="M139 0V1507H412V977Q573 1116 733 1116Q895 1116 1000 1013T1106 719V0H834V514Q834 586 830 636T815 733T782 806T728 850T647 866Q531 866 463 760Q439 722 427 672T414 587T412 484Q412 470 412 463V0H139Z" />
<glyph unicode="i" glyph-name="i" horiz-adv-x="491" d="M111 0V1087H383V0H111ZM246 1536Q319 1536 369 1483T420 1356Q420 1284 369 1233T246 1182Q172 1182 122 1237T72 1370Q72 1440 123 1488T246 1536Z" />
<glyph unicode="j" glyph-name="j" horiz-adv-x="532" d="M131 -55V1087H403V-66Q403 -426 117 -426Q35 -426 -88 -385V-170Q-24 -201 25 -201Q83 -201 107 -166T131 -55ZM264 1536Q337 1536 388 1483T440 1356Q440 1284 389 1233T266 1182Q192 1182 142 1238T92
1370Q92 1440 142 1488T264 1536Z" />
<glyph unicode="k" glyph-name="k" horiz-adv-x="1187" d="M139 0V1507H412V639L815 1087H1155L688 565L1212 0H874L412 502V0H139Z" />
<glyph unicode="l" glyph-name="l" horiz-adv-x="491" d="M111 0V1507H383V0H111Z" />
<glyph unicode="m" glyph-name="m" horiz-adv-x="1925" d="M1108 537V0H836V526Q836 696 794 781T643 866Q538 866 474 781T410 532V0H137V1087H410V963Q551 1116 750 1116Q853 1116 935 1067T1067 922Q1146 1022 1230 1069T1432 1116Q1521 1116 1598 1082T1722
989Q1771 927 1786 845T1802 637V0H1530V600Q1530 866 1343 866Q1236 866 1172 783T1108 537Z" />
<glyph unicode="n" glyph-name="n" horiz-adv-x="1228" d="M410 1087V977Q493 1047 568 1081T731 1116Q889 1116 996 1015T1104 743V0H831V514Q831 586 828 634T814 730T784 805T730 849T647 866Q530 866 463 762Q437 721 425 666T412 576T410 463V0H137V1087H410Z" />
<glyph unicode="o" glyph-name="o" horiz-adv-x="1310" d="M649 1116Q766 1116 873 1072T1057 951T1181 769T1227 545Q1227 388 1153 257T947 49T651 -29Q535 -29 430 15T250 136T131 319T86 543Q86 663 132 770T256 953T436 1072T649 1116ZM653 858Q526 858 443
769T360 545Q360 405 441 317T653 229Q781 229 866 315T952 543Q952 682 869 770T653 858Z" />
<glyph unicode="p" glyph-name="p" horiz-adv-x="1351" d="M410 1087V969Q557 1116 752 1116Q856 1116 950 1074T1114 958T1225 776T1266 543Q1266 381 1194 249T1002 44T745 -29Q645 -29 566 6T410 115V-397H137V1087H410ZM696 866Q565 866 481 778T397 547Q397
402 482 312T696 221T907 313T991 545Q991 682 910 774T696 866Z" />
<glyph unicode="q" glyph-name="q" horiz-adv-x="1351" d="M1214 1087V-397H942V115Q868 42 788 7T606 -29Q503 -29 409 14T244 131T131 313T88 543Q88 709 157 841T342 1044T600 1116Q795 1116 942 969V1087H1214ZM655 866Q523 866 443 774T362 545Q362 405 445
313T655 221Q784 221 869 311T954 547Q954 688 870 777T655 866Z" />
<glyph unicode="r" glyph-name="r" horiz-adv-x="655" d="M309 1087V950Q346 1032 407 1074T539 1116Q599 1116 657 1087L573 854Q527 877 494 877Q434 877 393 810T348 627Q346 567 346 440V0H74V1087H309Z" />
<glyph unicode="s" glyph-name="s" horiz-adv-x="901" d="M446 424L354 471Q92 604 92 803Q92 933 191 1024T444 1116Q551 1116 644 1070T803 936L635 766Q533 866 446 866Q403 866 376 849T348 801Q348 786 354 775T376 751T405 733T446 711L547 659Q689 586
756 507T823 311Q823 163 716 67T432 -29Q194 -29 51 158L219 342Q267 286 330 251T446 215Q497 215 532 240T567 303Q567 336 537 364T446 424Z" />
<glyph unicode="t" glyph-name="t" horiz-adv-x="614" d="M170 1087V1489H442V1087H604V854H442V0H170V854H31V1087H170Z" />
<glyph unicode="u" glyph-name="u" horiz-adv-x="1228" d="M139 590V1087H412V520Q412 372 461 298T616 223Q723 223 772 294T821 508V1087H1094V586Q1094 413 1070 306T967 111Q845 -27 616 -27Q419 -27 301 71T150 360Q146 386 144 408T140 455T139 494T138
541T139 590Z" />
<glyph unicode="v" glyph-name="v" horiz-adv-x="1146" d="M485 0L20 1087H299L573 446L848 1087H1124L662 0H485Z" />
<glyph unicode="w" glyph-name="w" horiz-adv-x="1638" d="M410 0L16 1087H285L502 469L737 1087H901L1133 477L1352 1087H1620L1225 0H1051L819 621L580 0H410Z" />
<glyph unicode="x" glyph-name="x" horiz-adv-x="1146" d="M414 573L41 1087H358L571 791L786 1087H1102L729 573L1147 0H831L571 356L315 0H2L414 573Z" />
<glyph unicode="y" glyph-name="y" horiz-adv-x="1187" d="M432 82L18 1087H297L580 406L893 1087H1174L489 -397H209L432 82Z" />
<glyph unicode="z" glyph-name="z" horiz-adv-x="942" d="M92 856V1087H926L436 231H899V0H16L508 856H92Z" />
<glyph unicode="{" glyph-name="braceleft" horiz-adv-x="696" d="M698 -451H645Q544 -451 479 -440T358 -391Q241 -314 238 -147Q232 112 231 123Q222 270 176 326Q129 383 14 389V631Q143 637 189 712Q227 773 233 933Q231 879 238 1167Q241 1334 358 1411Q413
1447 479 1458T645 1470H698V1231H686Q567 1231 532 1206Q499 1183 493 1109Q492 1087 489 965Q488 884 484 833T470 730T439 643T387 575T307 510Q412 449 451 345T489 53Q488 -12 489 -48T498 -119T517 -167T552 -194T606 -208T686 -211H698V-451Z" />
<glyph unicode="|" glyph-name="bar" horiz-adv-x="1228" d="M535 -397V1507H692V-397H535Z" />
<glyph unicode="}" glyph-name="braceright" horiz-adv-x="696" d="M0 1470H53Q257 1470 357 1400T461 1167Q467 910 467 896Q476 749 522 694Q570 637 684 631V389Q555 383 509 309Q471 248 465 87Q467 134 461 -147Q458 -312 340 -391Q285 -429 220 -440T53
-451H0V-211H12Q132 -211 167 -186Q199 -163 205 -88Q207 -65 209 53Q210 134 214 185T228 289T259 376T311 445T391 510Q286 570 247 673T209 965Q209 1014 209 1043T206 1104T198 1152T182 1185T158 1209T123 1222T75 1229T12 1231H0V1470Z" />
<glyph unicode="~" glyph-name="asciitilde" horiz-adv-x="1228" d="M338 676Q278 676 224 649T100 565V883Q246 956 352 956Q426 956 506 931T644 876T764 820T872 795Q937 795 998 823T1130 907V586Q1004 514 883 514Q809 514 725 539T581 595T453 650T338 676Z" />
</font>
</defs>
</svg>
